# Blender 3.5.0
# www.blender.org
mtllib house1.mtl
o house1
v -0.092680 2.097732 0.092680
v -0.092680 2.097732 -0.092680
v 0.092680 2.097732 -0.092680
v 0.092680 2.097732 0.092680
v -0.707602 0.097732 0.835247
v -0.835247 0.097732 0.707602
v -0.835247 1.001134 0.707602
v -0.707602 1.001134 0.835247
v -0.925505 1.001134 0.925505
v -0.835247 0.097732 -0.707602
v -0.707602 0.097732 -0.835247
v -0.707602 1.001134 -0.835247
v -0.835247 1.001134 -0.707602
v -0.925505 1.001134 -0.925505
v 0.835247 0.097732 0.707602
v 0.707602 0.097732 0.835247
v 0.707602 1.001134 0.835247
v 0.835247 1.001134 0.707602
v 0.925505 1.001134 0.925505
v 0.707602 0.097732 -0.835247
v 0.835247 0.097732 -0.707602
v 0.835247 1.001134 -0.707602
v 0.707602 1.001134 -0.835247
v 0.925505 1.001134 -0.925505
v -0.942990 1.001134 0.942990
v -1.000000 1.069648 1.000000
v -1.000000 1.069648 -1.000000
v -0.942990 1.001134 -0.942990
v 1.000000 1.069648 -1.000000
v 0.942990 1.001134 -0.942990
v 1.000000 1.069648 1.000000
v 0.942990 1.001134 0.942990
v -0.677894 1.379887 0.677894
v -0.259883 1.864598 0.259883
v -0.259883 1.864598 -0.259883
v -0.677894 1.379887 -0.677894
v 0.259883 1.864598 -0.259883
v 0.677894 1.379887 -0.677894
v 0.259883 1.864598 0.259883
v 0.677894 1.379887 0.677894
vn -0.0000 -0.0000 1.0000
vn -0.0000 0.5828 -0.8126
vn -1.0000 -0.0000 -0.0000
vn -0.0000 0.7202 0.6937
vn -0.0000 1.0000 -0.0000
vn -0.6937 0.7202 -0.0000
vn 0.6937 0.7202 -0.0000
vn -0.0000 -1.0000 -0.0000
vn 0.8126 0.5828 -0.0000
vn -0.0000 0.7202 -0.6937
vn -0.0000 -0.0000 -1.0000
vn 1.0000 -0.0000 -0.0000
vn -0.7071 -0.0000 0.7071
vn -0.7071 -0.0000 -0.7071
vn 0.7071 -0.0000 -0.7071
vn 0.7071 -0.0000 0.7071
vn -0.7687 -0.6396 -0.0000
vn -0.0000 -0.6396 -0.7687
vn 0.7687 -0.6396 -0.0000
vn -0.0000 -0.6396 0.7687
vn -0.0000 0.5828 0.8126
vn -0.7573 0.6531 -0.0000
vn -0.0000 0.6531 -0.7573
vn 0.7573 0.6531 -0.0000
vn -0.0000 0.6531 0.7573
vn -0.8126 0.5828 -0.0000
vt 0.512078 0.592028
vt 0.640748 0.562988
vt 0.403258 0.265493
vt 0.403258 0.546987
vt 0.541119 0.592028
vt 0.379024 0.281494
vt 0.379024 0.562988
vt 0.541119 0.562988
vt 0.664982 0.265493
vt 0.512078 0.562988
vt 0.640748 0.281494
vt 0.664982 0.546987
vt 0.141535 0.528282
vt 0.161533 0.824703
vt 0.141535 0.500000
vt 0.141535 0.804705
vt 0.348035 0.007010
vt 0.512078 0.597127
vt 0.000000 0.500000
vt 0.424732 0.410670
vt 0.483797 0.597127
vt 0.000000 0.528282
vt 0.404035 0.441281
vt 0.384315 0.000000
vt 0.497938 0.562988
vt 0.141535 0.278281
vt 0.141535 0.582986
vt 0.141535 0.250000
vt 0.161533 0.562988
vt 0.348035 0.288504
vt 0.429387 0.599939
vt 0.000000 0.250000
vt 0.163009 0.129176
vt 0.403258 0.589117
vt 0.000000 0.278281
vt 0.384315 0.281494
vt 0.142312 0.159787
vt 0.429387 0.562988
vt 0.141535 0.778281
vt 0.403250 0.804705
vt 0.141535 0.750000
vt 0.383252 0.824703
vt 0.609758 0.288504
vt 0.455516 0.599939
vt 0.000000 0.750000
vt 0.424732 0.129176
vt 0.429387 0.589117
vt 0.000000 0.778282
vt 0.646039 0.281494
vt 0.404035 0.159787
vt 0.455516 0.562988
vt 0.141535 0.028281
vt 0.383252 0.562988
vt 0.141535 1.000000
vt 0.141535 0.000000
vt 0.403250 0.582986
vt 0.609758 0.007010
vt 0.000000 1.000000
vt 0.483797 0.597127
vt 0.000000 0.000000
vt 0.163009 0.410670
vt 0.455516 0.597127
vt 0.000000 0.028281
vt 0.142312 0.441281
vt 0.646039 0.000000
vt 0.469656 0.562988
vt 0.388111 0.000777
vt 0.403258 0.445076
vt 0.403258 0.007508
vt 0.403499 0.461651
vt 0.141776 0.180157
vt 0.403258 0.289002
vt 0.141535 0.163583
vt 0.388111 0.282271
vt 0.141776 0.461651
vt 0.664982 0.007508
vt 0.141535 0.445076
vt 0.649834 0.000777
vt 0.403499 0.180157
vt 0.664982 0.289002
vt 0.403258 0.163583
vt 0.649834 0.282271
vt 0.399751 0.093783
vt 0.484217 0.492315
vt 0.594121 0.539913
vt 0.400353 0.213550
vt 0.400353 0.495044
vt 0.332398 0.258419
vt 0.222494 0.210821
vt 0.399751 0.375277
vt 0.332398 0.539913
vt 0.662076 0.213550
vt 0.222494 0.492315
vt 0.661475 0.093783
vt 0.594121 0.258419
vt 0.662076 0.495044
vt 0.484217 0.210821
vt 0.661475 0.375277
s 0
usemtl house1
f 16/41/1 17/45/1 8/22/1 5/13/1
f 2/4/2 3/7/2 37/91/2 35/87/2
f 6/15/3 7/19/3 13/35/3 10/26/3
f 26/70/4 31/80/4 40/98/4 33/84/4
f 3/8/5 2/5/5 1/1/5 4/10/5
f 27/71/6 26/69/6 33/83/6 36/89/6
f 31/79/7 29/76/7 38/94/7 40/97/7
f 9/23/8 8/20/8 17/43/8 19/49/8 32/82/8 25/68/8
f 3/9/9 4/11/9 39/95/9 37/92/9
f 24/64/8 23/61/8 12/30/8 14/36/8 28/74/8 30/77/8
f 19/50/8 18/46/8 22/57/8 24/65/8 30/78/8 32/81/8
f 29/75/10 27/72/10 36/90/10 38/93/10
f 14/37/8 13/33/8 7/17/8 9/24/8 25/67/8 28/73/8
f 11/28/11 12/32/11 23/63/11 20/52/11
f 21/54/12 22/58/12 18/48/12 15/39/12
f 7/18/8 8/21/8 9/25/8
f 12/31/8 13/34/8 14/38/8
f 17/44/8 18/47/8 19/51/8
f 22/59/8 23/62/8 24/66/8
f 5/13/13 8/22/13 7/19/13 6/15/13
f 12/32/14 11/28/14 10/26/14 13/35/14
f 22/60/15 21/55/15 20/52/15 23/63/15
f 17/45/16 16/41/16 15/39/16 18/48/16
f 10/27/8 11/29/8 20/53/8 21/56/8 15/40/8 16/42/8 5/14/8 6/16/8
f 26/69/17 27/71/17 28/73/17 25/67/17
f 27/72/18 29/75/18 30/77/18 28/74/18
f 29/76/19 31/79/19 32/81/19 30/78/19
f 31/80/20 26/70/20 25/68/20 32/82/20
f 4/12/21 1/2/21 34/85/21 39/96/21
f 34/86/22 35/88/22 36/89/22 33/83/22
f 35/87/23 37/91/23 38/93/23 36/90/23
f 37/92/24 39/95/24 40/97/24 38/94/24
f 39/96/25 34/85/25 33/84/25 40/98/25
f 1/3/26 2/6/26 35/88/26 34/86/26
