# Blender 3.5.0
# www.blender.org
mtllib stairs.mtl
o Cube
v 0.500000 0.500000 -0.500000
v 0.500000 -0.500000 -0.500000
v -0.250000 -0.500000 -0.250000
v 0.500000 -0.500000 0.500000
v -0.500000 0.500000 -0.500000
v -0.500000 -0.500000 -0.500000
v 0.000000 -0.500000 -0.250000
v -0.500000 -0.500000 0.500000
v -0.500000 -0.500000 -0.250000
v -0.500000 -0.500000 0.000000
v -0.500000 -0.500000 0.250000
v 0.500000 0.500000 -0.250000
v 0.250000 -0.500000 -0.250000
v 0.250000 0.500000 -0.500000
v 0.000000 0.500000 -0.500000
v -0.250000 0.500000 -0.500000
v -0.500000 0.500000 -0.250000
v 0.500000 -0.500000 0.250000
v 0.500000 -0.500000 0.000000
v 0.500000 -0.500000 -0.250000
v 0.500000 0.250000 -0.500000
v 0.500000 0.000000 -0.500000
v 0.500000 -0.250000 -0.500000
v -0.500000 -0.250000 0.500000
v 0.000000 -0.500000 -0.500000
v 0.250000 -0.500000 0.500000
v 0.000000 -0.500000 0.500000
v 0.250000 -0.500000 -0.500000
v 0.500000 -0.250000 0.500000
v -0.500000 0.250000 -0.500000
v -0.500000 0.000000 -0.500000
v -0.500000 -0.250000 -0.500000
v 0.500000 0.250000 -0.250000
v 0.500000 0.000000 -0.250000
v 0.500000 -0.250000 -0.250000
v 0.500000 0.250000 0.000000
v 0.500000 0.000000 0.000000
v 0.500000 -0.250000 0.000000
v -0.250000 -0.500000 0.500000
v 0.500000 0.000000 0.250000
v 0.500000 -0.250000 0.250000
v -0.250000 -0.500000 -0.500000
v -0.500000 0.000000 0.250000
v -0.500000 -0.250000 0.250000
v -0.500000 0.250000 0.000000
v -0.500000 0.000000 0.000000
v -0.500000 -0.250000 0.000000
v -0.500000 0.250000 -0.250000
v -0.500000 0.000000 -0.250000
v -0.500000 -0.250000 -0.250000
v 0.250000 -0.500000 0.000000
v 0.000000 -0.500000 0.000000
v -0.250000 -0.500000 0.000000
v 0.250000 -0.500000 0.250000
v 0.000000 -0.500000 0.250000
v -0.250000 -0.500000 0.250000
v -0.250000 0.500000 -0.250000
v 0.000000 0.500000 -0.250000
v 0.250000 0.500000 -0.250000
v -0.250000 0.250000 0.000000
v 0.000000 0.250000 0.000000
v 0.250000 0.250000 0.000000
v 0.250000 0.250000 -0.250000
v 0.000000 0.250000 -0.250000
v -0.250000 0.250000 -0.250000
v -0.250000 -0.250000 -0.500000
v 0.000000 -0.250000 -0.500000
v 0.250000 -0.250000 -0.500000
v -0.250000 0.000000 -0.500000
v 0.000000 0.000000 -0.500000
v 0.250000 0.000000 -0.500000
v -0.250000 0.250000 -0.500000
v 0.000000 0.250000 -0.500000
v 0.250000 0.250000 -0.500000
v 0.250000 -0.250000 0.250000
v 0.000000 -0.250000 0.250000
v -0.250000 -0.250000 0.250000
v 0.250000 -0.250000 0.500000
v 0.000000 -0.250000 0.500000
v -0.250000 -0.250000 0.500000
v -0.250000 0.000000 0.250000
v 0.000000 0.000000 0.250000
v 0.250000 0.000000 0.250000
v 0.250000 0.000000 0.000000
v 0.000000 0.000000 0.000000
v -0.250000 0.000000 0.000000
vn -0.0000 -0.0000 1.0000
vn -1.0000 -0.0000 -0.0000
vn -0.0000 -1.0000 -0.0000
vn -0.0000 -0.0000 -1.0000
vn 1.0000 -0.0000 -0.0000
vn -0.0000 1.0000 -0.0000
vt 0.333333 0.333333
vt 0.333333 1.000000
vt 0.333333 0.666667
vt 1.000000 0.000000
vt 0.333333 0.666667
vt 0.333333 0.000000
vt 0.750000 0.083333
vt 1.000000 0.333333
vt 0.333333 0.000000
vt 0.000000 0.666667
vt 0.333333 0.333333
vt 0.000000 0.666667
vt 0.666667 0.333333
vt 0.666667 0.333333
vt 0.666667 0.000000
vt 0.833333 0.083333
vt 0.666667 0.666667
vt 0.000000 0.000000
vt 0.666667 0.333333
vt 0.666667 0.416667
vt 0.666667 0.083333
vt 0.666667 0.500000
vt 0.666667 0.166667
vt 0.666667 0.583334
vt 0.666667 0.250000
vt 0.250000 1.000000
vt 0.333333 0.583333
vt 0.916667 0.083333
vt 0.250000 0.666667
vt 0.416667 0.333333
vt 0.166667 0.666667
vt 0.500000 0.333333
vt 0.083333 0.666667
vt 0.583333 0.333333
vt 0.333333 0.416667
vt 0.000000 0.583333
vt 1.000000 0.250000
vt 0.083333 0.666667
vt 1.000000 0.166667
vt 0.166667 0.666667
vt 1.000000 0.083333
vt 0.250000 0.666667
vt 0.333333 0.916667
vt 0.333333 0.250000
vt 0.333333 0.833333
vt 0.333333 0.166667
vt 0.333333 0.750000
vt 0.333333 0.083333
vt 0.583333 0.666667
vt 0.000000 0.083333
vt 0.500000 0.000000
vt 0.833333 0.000000
vt 0.250000 0.000000
vt 0.916667 0.333333
vt 0.166667 0.000000
vt 0.833333 0.333333
vt 0.416667 0.000000
vt 0.916667 0.000000
vt 0.333333 0.083333
vt 0.000000 0.750000
vt 0.416667 0.333333
vt 0.666667 0.250000
vt 0.500000 0.333333
vt 0.666667 0.166667
vt 0.583333 0.333334
vt 0.666667 0.083333
vt 0.333333 0.500000
vt 0.250000 0.916667
vt 0.250000 0.833333
vt 0.250000 0.750000
vt 0.166667 0.916667
vt 0.333333 0.416667
vt 0.166667 0.833333
vt 0.333333 0.333333
vt 0.166667 0.750000
vt 0.083333 0.000000
vt 0.750000 0.333333
vt 0.083333 0.833333
vt 0.333333 0.250000
vt 0.333333 0.166667
vt 0.083333 0.750000
vt 0.583333 0.000000
vt 0.750000 0.000000
vt 0.500000 0.583333
vt 0.000000 0.250000
vt 0.583333 0.583334
vt 0.000000 0.166667
vt 0.416667 0.500000
vt 0.000000 0.416667
vt 0.500000 0.500000
vt 0.000000 0.333333
vt 0.583333 0.500000
vt 0.416667 0.416667
vt 0.000000 0.500000
vt 0.500000 0.416667
vt 0.583333 0.416667
vt 0.916667 0.166667
vt 0.833333 0.166667
vt 0.750000 0.166667
vt 0.916667 0.250000
vt 0.833333 0.250000
vt 0.750000 0.250000
vt 0.083333 0.583333
vt 0.166667 0.583333
vt 0.250000 0.583333
vt 0.083333 0.416667
vt 0.166667 0.416667
vt 0.250000 0.416667
vt 0.250000 0.500000
vt 0.166667 0.500000
vt 0.083333 0.500000
vt 0.583333 0.083333
vt 0.500000 0.083333
vt 0.416667 0.083333
vt 0.583333 0.166667
vt 0.500000 0.166667
vt 0.416667 0.166667
vt 0.583333 0.250000
vt 0.500000 0.250000
vt 0.416667 0.250000
vt 0.250000 0.166667
vt 0.166667 0.166667
vt 0.083333 0.166667
vt 0.250000 0.083333
vt 0.166667 0.083333
vt 0.083333 0.083333
vt 0.083333 0.250000
vt 0.166667 0.250000
vt 0.250000 0.250000
vt 0.250000 0.333333
vt 0.166667 0.333333
vt 0.083333 0.333333
s 0
usemtl default
f 76/122/1 82/128/1 81/127/1 77/123/1
f 75/121/1 83/129/1 82/128/1 76/122/1
f 48/93/2 17/35/2 5/11/2 30/61/2
f 54/100/3 18/37/3 4/8/3 26/54/3
f 41/80/1 40/79/1 83/129/1 75/121/1
f 74/120/4 14/30/4 1/1/4 21/44/4
f 21/43/5 1/2/5 12/26/5 33/68/5
f 26/53/1 78/124/1 79/125/1 27/55/1
f 4/9/1 29/59/1 78/124/1 26/53/1
f 28/58/3 2/4/3 20/41/3 13/28/3
f 13/28/3 20/41/3 19/39/3 51/97/3
f 51/97/3 19/39/3 18/37/3 54/100/3
f 27/55/1 79/125/1 80/126/1 39/76/1
f 82/128/6 83/129/6 84/130/6 85/131/6
f 81/127/6 82/128/6 85/131/6 86/132/6
f 16/33/6 5/12/6 17/36/6 57/103/6
f 62/108/6 36/72/6 33/67/6 63/109/6
f 59/105/1 63/109/1 33/67/1 12/27/1
f 10/22/2 47/92/2 50/96/2 9/20/2
f 47/92/2 46/90/2 49/95/2 50/96/2
f 46/90/2 45/88/2 48/93/2 49/95/2
f 11/24/2 44/86/2 47/92/2 10/22/2
f 44/86/2 43/84/2 46/90/2 47/92/2
f 43/85/6 81/127/6 86/132/6 46/91/6
f 8/17/2 24/49/2 44/86/2 11/24/2
f 78/124/6 29/59/6 41/80/6 75/121/6
f 85/131/1 61/107/1 60/106/1 86/132/1
f 19/40/5 38/75/5 41/81/5 18/38/5
f 38/75/5 37/73/5 40/78/5 41/81/5
f 84/130/1 62/108/1 61/107/1 85/131/1
f 20/42/5 35/70/5 38/75/5 19/40/5
f 35/70/5 34/69/5 37/73/5 38/75/5
f 34/69/5 33/68/5 36/71/5 37/73/5
f 2/5/5 23/47/5 35/70/5 20/42/5
f 23/47/5 22/45/5 34/69/5 35/70/5
f 22/45/5 21/43/5 33/68/5 34/69/5
f 28/57/4 68/114/4 23/48/4 2/6/4
f 68/114/4 71/117/4 22/46/4 23/48/4
f 71/117/4 74/120/4 21/44/4 22/46/4
f 18/38/5 41/81/5 29/60/5 4/10/5
f 77/123/1 81/127/1 43/85/1 44/87/1
f 37/74/1 36/72/1 62/108/1 84/130/1
f 9/20/2 50/96/2 32/65/2 6/14/2
f 50/96/2 49/95/2 31/63/2 32/65/2
f 49/95/2 48/93/2 30/61/2 31/63/2
f 39/76/1 80/126/1 24/50/1 8/18/1
f 83/129/6 40/79/6 37/74/6 84/130/6
f 86/132/1 60/106/1 45/89/1 46/91/1
f 31/64/4 30/62/4 72/118/4 69/115/4
f 69/115/4 72/118/4 73/119/4 70/116/4
f 70/116/4 73/119/4 74/120/4 71/117/4
f 32/66/4 31/64/4 69/115/4 66/112/4
f 66/112/4 69/115/4 70/116/4 67/113/4
f 67/113/4 70/116/4 71/117/4 68/114/4
f 6/15/4 32/66/4 66/112/4 42/82/4
f 42/82/4 66/112/4 67/113/4 25/51/4
f 25/51/4 67/113/4 68/114/4 28/57/4
f 24/50/6 80/126/6 77/123/6 44/87/6
f 80/126/6 79/125/6 76/122/6 77/123/6
f 79/125/6 78/124/6 75/121/6 76/122/6
f 17/36/1 48/94/1 65/111/1 57/103/1
f 57/103/1 65/111/1 64/110/1 58/104/1
f 58/104/1 64/110/1 63/109/1 59/105/1
f 45/89/6 60/106/6 65/111/6 48/94/6
f 60/106/6 61/107/6 64/110/6 65/111/6
f 61/107/6 62/108/6 63/109/6 64/110/6
f 1/3/6 14/29/6 59/105/6 12/27/6
f 14/29/6 15/31/6 58/104/6 59/105/6
f 15/31/6 16/33/6 57/103/6 58/104/6
f 10/23/3 53/99/3 56/102/3 11/25/3
f 53/99/3 52/98/3 55/101/3 56/102/3
f 52/98/3 51/97/3 54/100/3 55/101/3
f 9/21/3 3/7/3 53/99/3 10/23/3
f 3/7/3 7/16/3 52/98/3 53/99/3
f 7/16/3 13/28/3 51/97/3 52/98/3
f 6/15/3 42/83/3 3/7/3 9/21/3
f 42/83/3 25/52/3 7/16/3 3/7/3
f 25/52/3 28/58/3 13/28/3 7/16/3
f 30/62/4 5/13/4 16/34/4 72/118/4
f 72/118/4 16/34/4 15/32/4 73/119/4
f 73/119/4 15/32/4 14/30/4 74/120/4
f 11/25/3 56/102/3 39/77/3 8/19/3
f 56/102/3 55/101/3 27/56/3 39/77/3
f 55/101/3 54/100/3 26/54/3 27/56/3
